<svg width="1441" height="298" viewBox="0 0 1441 298" fill="none" xmlns="http://www.w3.org/2000/svg">
<g clip-path="url(#clip0_132_475)">
<path d="M-1 -16H1442V445H-1V-16Z" fill="#3D2C7F"/>
<path d="M1442.6 190C1427.69 173 1381.65 208 1327.11 157C1272.56 106 1121.43 121.5 1079.9 121.5C1038.37 121.5 883.736 197.5 740.617 133.5C597.498 69.5 453.879 218.5 278.733 190C103.587 161.5 72.5612 224.5 -1.00012 190L-0.932861 28H1442.6V190Z" fill="url(#paint0_linear_132_475)"/>
<path d="M1442.6 118C1427.69 101 1404.67 78 1307.09 95C1209.51 112 1114.43 75.5 975.813 90.5C837.198 105.5 738.115 182 594.996 118C451.877 54 305.755 173 240.201 198.5C174.646 224 72.5612 152.5 -1.00012 118L-0.932861 -44H1442.6V118Z" fill="url(#paint1_linear_132_475)"/>
<path d="M1442.6 -3958C1406.78 -4057.21 1147.04 -4008.53 1038.07 -3912.31C929.103 -3816.09 782.816 -3914.84 672.851 -3813.63C562.887 -3712.43 413.117 -3803.66 346.939 -3742.84C280.762 -3682.02 213.413 -3696.19 166.639 -3640.5C119.866 -3584.81 56.5478 -3632 0.50117 -3561.5L-1.00008 59.5C72.5612 94 23.5203 100 278.733 59.5C533.945 19 400.834 97 594.996 59.5C789.158 22 760.134 103 908.257 59.5C1056.38 16 1076.4 101.5 1176.98 59.5C1277.56 17.5 1380.15 110.5 1442.6 59.5V-3958Z" fill="white"/>
</g>
<defs>
<linearGradient id="paint0_linear_132_475" x1="1442.6" y1="114.317" x2="-1" y2="114.317" gradientUnits="userSpaceOnUse">
<stop stop-color="#3C4A95" stop-opacity="0.5"/>
<stop offset="0.5" stop-color="#3C4A95"/>
<stop offset="1" stop-color="#3C4A95" stop-opacity="0.5"/>
</linearGradient>
<linearGradient id="paint1_linear_132_475" x1="1442.6" y1="79.9415" x2="-1" y2="79.9415" gradientUnits="userSpaceOnUse">
<stop stop-color="#3496E1" stop-opacity="0.5"/>
<stop offset="0.5" stop-color="#3496E1"/>
<stop offset="1" stop-color="#3496E1" stop-opacity="0.5"/>
</linearGradient>
<clipPath id="clip0_132_475">
<rect width="1441" height="298" fill="white"/>
</clipPath>
</defs>
</svg>
