<svg width="1439" height="962" viewBox="0 0 1439 962" fill="none" xmlns="http://www.w3.org/2000/svg">
<g clip-path="url(#clip0_129_471)">
<path fill-rule="evenodd" clip-rule="evenodd" d="M1439.8 0H-0.998535V956.5H1439.8V943.051H1440.2V532.551C1440.07 532.191 1439.94 531.833 1439.8 531.477V0ZM1439.8 531.477C1402.56 433.693 1144.74 482.374 1036.34 578.245C982.674 625.715 919.935 629.137 856.957 632.572C792.281 636.1 727.352 639.641 671.732 690.917C609.892 747.925 535.443 743.872 470.404 740.331C419.981 737.586 375.214 735.149 346.362 761.711C313.711 791.77 280.775 803.513 250.173 814.424C218.854 825.591 189.98 835.885 166.362 864.051C144.429 890.206 118.852 893.666 92.0953 897.286C61.8859 901.374 30.172 905.664 0.499634 943.051H1439.8V531.477Z" fill="url(#paint0_radial_129_471)"/>
<path d="M224.219 666.841C29.9258 707.942 -0.998535 798.341 -0.998535 798.341V957.5L1440.2 570.534V430.534C1409.74 379.034 1320.85 395.342 1293.38 400.842C1265.92 406.343 1210.49 462.841 1172.04 480.341C1133.58 497.841 1001.37 556.259 858.926 530.841C716.485 505.424 696.13 675.649 550.812 666.841C405.493 658.034 418.513 625.741 224.219 666.841Z" fill="url(#paint1_linear_129_471)"/>
<path d="M253.184 771.193C199.751 831.192 -0.998535 880.692 -0.998535 880.692V952L1440.2 652.776V512.5C1409.74 461 1327.34 523.693 1248.94 472.693C1170.54 421.693 1095.63 502.193 1057.18 519.693C1018.73 537.193 917.354 594.692 812.985 624.192C708.615 653.692 624.72 611.692 490.388 637.192C356.055 662.692 306.617 711.193 253.184 771.193Z" fill="url(#paint2_linear_129_471)"/>
<path d="M1440.6 557C1404.78 457.789 1145.04 506.474 1036.07 602.694C927.103 698.914 780.816 600.16 670.851 701.366C560.887 802.571 411.117 711.337 344.94 772.16C278.762 832.983 211.413 818.815 164.64 874.5C117.866 930.185 54.548 883 -1.49869 953.5L-3.00004 4574.5C70.5612 4609 21.5204 4615 276.733 4574.5C531.945 4534 398.834 4612 592.996 4574.5C787.158 4537 758.134 4618 906.257 4574.5C1054.38 4531 1074.4 4616.5 1174.98 4574.5C1275.56 4532.5 1378.15 4625.5 1440.6 4574.5V557Z" fill="white"/>
<path d="M179.25 229.1H142.675V288H134.6V221.5H187.325V288H179.25V229.1ZM198.235 266.15C198.235 261.717 199.217 257.79 201.18 254.37C203.207 250.95 205.93 248.258 209.35 246.295C212.77 244.332 216.602 243.35 220.845 243.35C225.152 243.35 228.983 244.332 232.34 246.295C235.76 248.258 238.452 250.95 240.415 254.37C242.442 257.79 243.455 261.717 243.455 266.15C243.455 270.52 242.442 274.447 240.415 277.93C238.452 281.35 235.76 284.042 232.34 286.005C228.983 287.968 225.152 288.95 220.845 288.95C216.602 288.95 212.77 287.968 209.35 286.005C205.93 284.042 203.207 281.35 201.18 277.93C199.217 274.447 198.235 270.52 198.235 266.15ZM205.93 266.15C205.93 269.19 206.563 271.882 207.83 274.225C209.16 276.568 210.933 278.437 213.15 279.83C215.43 281.16 217.995 281.825 220.845 281.825C223.695 281.825 226.228 281.16 228.445 279.83C230.725 278.437 232.498 276.568 233.765 274.225C235.095 271.882 235.76 269.19 235.76 266.15C235.76 263.11 235.095 260.418 233.765 258.075C232.498 255.668 230.725 253.8 228.445 252.47C226.228 251.14 223.695 250.475 220.845 250.475C217.995 250.475 215.43 251.14 213.15 252.47C210.933 253.8 209.16 255.668 207.83 258.075C206.563 260.418 205.93 263.11 205.93 266.15ZM261.021 308.9H253.421V244.3H261.021V308.9ZM297.596 266.15C297.596 270.837 296.614 274.89 294.651 278.31C292.687 281.73 290.059 284.358 286.766 286.195C283.536 288.032 279.926 288.95 275.936 288.95C272.326 288.95 269.127 288.032 266.341 286.195C263.617 284.358 261.464 281.73 259.881 278.31C258.361 274.89 257.601 270.837 257.601 266.15C257.601 261.4 258.361 257.347 259.881 253.99C261.464 250.57 263.617 247.942 266.341 246.105C269.127 244.268 272.326 243.35 275.936 243.35C279.926 243.35 283.536 244.268 286.766 246.105C290.059 247.942 292.687 250.57 294.651 253.99C296.614 257.347 297.596 261.4 297.596 266.15ZM289.901 266.15C289.901 262.793 289.204 259.943 287.811 257.6C286.481 255.257 284.676 253.483 282.396 252.28C280.179 251.077 277.709 250.475 274.986 250.475C272.769 250.475 270.584 251.077 268.431 252.28C266.277 253.483 264.504 255.257 263.111 257.6C261.717 259.943 261.021 262.793 261.021 266.15C261.021 269.507 261.717 272.357 263.111 274.7C264.504 277.043 266.277 278.817 268.431 280.02C270.584 281.223 272.769 281.825 274.986 281.825C277.709 281.825 280.179 281.223 282.396 280.02C284.676 278.817 286.481 277.043 287.811 274.7C289.204 272.357 289.901 269.507 289.901 266.15ZM301.425 244.3H327.075V251.425H301.425V244.3ZM310.45 246.2H318.05V288H310.45V246.2ZM350.22 234.8H357.82V297.5H350.22V234.8ZM329.51 266.15C329.51 261.717 330.523 257.79 332.55 254.37C334.576 250.95 337.426 248.258 341.1 246.295C344.836 244.332 349.143 243.35 354.02 243.35C358.96 243.35 363.266 244.332 366.94 246.295C370.613 248.258 373.463 250.95 375.49 254.37C377.516 257.79 378.53 261.717 378.53 266.15C378.53 270.52 377.516 274.447 375.49 277.93C373.463 281.35 370.613 284.042 366.94 286.005C363.266 287.968 358.96 288.95 354.02 288.95C349.143 288.95 344.836 287.968 341.1 286.005C337.426 284.042 334.576 281.35 332.55 277.93C330.523 274.447 329.51 270.52 329.51 266.15ZM337.205 266.15C337.205 269.19 337.87 271.882 339.2 274.225C340.593 276.568 342.525 278.437 344.995 279.83C347.528 281.16 350.536 281.825 354.02 281.825C357.503 281.825 360.48 281.16 362.95 279.83C365.483 278.437 367.415 276.568 368.745 274.225C370.138 271.882 370.835 269.19 370.835 266.15C370.835 263.11 370.138 260.418 368.745 258.075C367.415 255.668 365.483 253.8 362.95 252.47C360.48 251.14 357.503 250.475 354.02 250.475C350.536 250.475 347.528 251.14 344.995 252.47C342.525 253.8 340.593 255.668 339.2 258.075C337.87 260.418 337.205 263.11 337.205 266.15ZM385.174 266.15C385.174 261.717 386.155 257.79 388.119 254.37C390.145 250.95 392.869 248.258 396.289 246.295C399.709 244.332 403.54 243.35 407.784 243.35C412.09 243.35 415.922 244.332 419.279 246.295C422.699 248.258 425.39 250.95 427.354 254.37C429.38 257.79 430.394 261.717 430.394 266.15C430.394 270.52 429.38 274.447 427.354 277.93C425.39 281.35 422.699 284.042 419.279 286.005C415.922 287.968 412.09 288.95 407.784 288.95C403.54 288.95 399.709 287.968 396.289 286.005C392.869 284.042 390.145 281.35 388.119 277.93C386.155 274.447 385.174 270.52 385.174 266.15ZM392.869 266.15C392.869 269.19 393.502 271.882 394.769 274.225C396.099 276.568 397.872 278.437 400.089 279.83C402.369 281.16 404.934 281.825 407.784 281.825C410.634 281.825 413.167 281.16 415.384 279.83C417.664 278.437 419.437 276.568 420.704 274.225C422.034 271.882 422.699 269.19 422.699 266.15C422.699 263.11 422.034 260.418 420.704 258.075C419.437 255.668 417.664 253.8 415.384 252.47C413.167 251.14 410.634 250.475 407.784 250.475C404.934 250.475 402.369 251.14 400.089 252.47C397.872 253.8 396.099 255.668 394.769 258.075C393.502 260.418 392.869 263.11 392.869 266.15ZM479.119 244.3V288H471.519V251.425H449.194V272.8C449.194 276.22 448.656 279.07 447.579 281.35C446.566 283.567 444.982 285.245 442.829 286.385C440.676 287.462 437.952 288 434.659 288V281.065C436.559 281.065 438.174 280.463 439.504 279.26C440.897 278.057 441.594 275.903 441.594 272.8V244.3H479.119ZM530.383 251.9L494.283 291.325L494.758 280.4L530.858 240.975L530.383 251.9ZM501.883 244.3V280.875L494.283 291.325V244.3H501.883ZM530.858 240.975V288H523.258V251.425L530.858 240.975ZM541.775 266.15C541.775 261.717 542.757 257.79 544.72 254.37C546.747 250.95 549.47 248.258 552.89 246.295C556.31 244.332 560.142 243.35 564.385 243.35C568.692 243.35 572.524 244.332 575.88 246.295C579.3 248.258 581.992 250.95 583.955 254.37C585.982 257.79 586.995 261.717 586.995 266.15C586.995 270.52 585.982 274.447 583.955 277.93C581.992 281.35 579.3 284.042 575.88 286.005C572.524 287.968 568.692 288.95 564.385 288.95C560.142 288.95 556.31 287.968 552.89 286.005C549.47 284.042 546.747 281.35 544.72 277.93C542.757 274.447 541.775 270.52 541.775 266.15ZM549.47 266.15C549.47 269.19 550.104 271.882 551.37 274.225C552.7 276.568 554.474 278.437 556.69 279.83C558.97 281.16 561.535 281.825 564.385 281.825C567.235 281.825 569.769 281.16 571.985 279.83C574.265 278.437 576.039 276.568 577.305 274.225C578.635 271.882 579.3 269.19 579.3 266.15C579.3 263.11 578.635 260.418 577.305 258.075C576.039 255.668 574.265 253.8 571.985 252.47C569.769 251.14 567.235 250.475 564.385 250.475C561.535 250.475 558.97 251.14 556.69 252.47C554.474 253.8 552.7 255.668 551.37 258.075C550.104 260.418 549.47 263.11 549.47 266.15ZM167.85 358.5H177.35L157.685 390.135L178.775 425H169.275L153.6 397.165L137.45 425H127.95L149.61 390.135L130.325 358.5H139.825L153.695 383.105L167.85 358.5ZM180.144 403.15C180.144 398.717 181.126 394.79 183.089 391.37C185.116 387.95 187.839 385.258 191.259 383.295C194.679 381.332 198.511 380.35 202.754 380.35C207.061 380.35 210.893 381.332 214.249 383.295C217.669 385.258 220.361 387.95 222.324 391.37C224.351 394.79 225.364 398.717 225.364 403.15C225.364 407.52 224.351 411.447 222.324 414.93C220.361 418.35 217.669 421.042 214.249 423.005C210.893 424.968 207.061 425.95 202.754 425.95C198.511 425.95 194.679 424.968 191.259 423.005C187.839 421.042 185.116 418.35 183.089 414.93C181.126 411.447 180.144 407.52 180.144 403.15ZM187.839 403.15C187.839 406.19 188.473 408.882 189.739 411.225C191.069 413.568 192.843 415.437 195.059 416.83C197.339 418.16 199.904 418.825 202.754 418.825C205.604 418.825 208.138 418.16 210.354 416.83C212.634 415.437 214.408 413.568 215.674 411.225C217.004 408.882 217.669 406.19 217.669 403.15C217.669 400.11 217.004 397.418 215.674 395.075C214.408 392.668 212.634 390.8 210.354 389.47C208.138 388.14 205.604 387.475 202.754 387.475C199.904 387.475 197.339 388.14 195.059 389.47C192.843 390.8 191.069 392.668 189.739 395.075C188.473 397.418 187.839 400.11 187.839 403.15ZM254.823 394.41L241.998 422.15H233.448L254.823 377.975L276.198 422.15H267.648L254.823 394.41ZM274.298 425H235.823V433.55H227.748V417.875H281.898V433.55H274.298V425ZM289.524 403.15C289.524 398.717 290.506 394.79 292.469 391.37C294.496 387.95 297.219 385.258 300.639 383.295C304.059 381.332 307.891 380.35 312.134 380.35C316.441 380.35 320.273 381.332 323.629 383.295C327.049 385.258 329.741 387.95 331.704 391.37C333.731 394.79 334.744 398.717 334.744 403.15C334.744 407.52 333.731 411.447 331.704 414.93C329.741 418.35 327.049 421.042 323.629 423.005C320.273 424.968 316.441 425.95 312.134 425.95C307.891 425.95 304.059 424.968 300.639 423.005C297.219 421.042 294.496 418.35 292.469 414.93C290.506 411.447 289.524 407.52 289.524 403.15ZM297.219 403.15C297.219 406.19 297.853 408.882 299.119 411.225C300.449 413.568 302.223 415.437 304.439 416.83C306.719 418.16 309.284 418.825 312.134 418.825C314.984 418.825 317.518 418.16 319.734 416.83C322.014 415.437 323.788 413.568 325.054 411.225C326.384 408.882 327.049 406.19 327.049 403.15C327.049 400.11 326.384 397.418 325.054 395.075C323.788 392.668 322.014 390.8 319.734 389.47C317.518 388.14 314.984 387.475 312.134 387.475C309.284 387.475 306.719 388.14 304.439 389.47C302.223 390.8 300.449 392.668 299.119 395.075C297.853 397.418 297.219 400.11 297.219 403.15ZM344.71 381.3H352.31V425H344.71V381.3ZM368.46 381.3H377.96L358.96 399.35L379.86 425H370.36L349.46 399.35L368.46 381.3ZM390.445 412.175C390.445 413.695 390.857 414.993 391.68 416.07C392.504 417.083 393.612 417.875 395.005 418.445C396.399 418.952 397.95 419.205 399.66 419.205C402.194 419.205 404.442 418.825 406.405 418.065C408.369 417.305 409.889 416.102 410.965 414.455C412.105 412.808 412.675 410.623 412.675 407.9L414.195 412.65C414.195 415.437 413.435 417.843 411.915 419.87C410.459 421.833 408.495 423.353 406.025 424.43C403.555 425.443 400.8 425.95 397.76 425.95C395.037 425.95 392.535 425.443 390.255 424.43C387.975 423.417 386.139 421.928 384.745 419.965C383.415 417.938 382.75 415.437 382.75 412.46C382.75 409.357 383.51 406.728 385.03 404.575C386.55 402.422 388.704 400.775 391.49 399.635C394.277 398.432 397.57 397.83 401.37 397.83C404.157 397.83 406.532 398.21 408.495 398.97C410.522 399.667 412.137 400.49 413.34 401.44C414.544 402.327 415.367 403.055 415.81 403.625V408.09C413.657 406.57 411.472 405.462 409.255 404.765C407.039 404.005 404.537 403.625 401.75 403.625C399.217 403.625 397.095 403.973 395.385 404.67C393.739 405.367 392.504 406.348 391.68 407.615C390.857 408.882 390.445 410.402 390.445 412.175ZM390.445 391.56L386.74 385.765C388.387 384.562 390.604 383.358 393.39 382.155C396.177 380.952 399.534 380.35 403.46 380.35C406.817 380.35 409.73 380.888 412.2 381.965C414.734 382.978 416.697 384.467 418.09 386.43C419.547 388.393 420.275 390.8 420.275 393.65V425H412.675V393.65C412.675 391.433 411.725 389.787 409.825 388.71C407.989 387.57 405.867 387 403.46 387C401.37 387 399.47 387.285 397.76 387.855C396.05 388.362 394.562 388.995 393.295 389.755C392.092 390.452 391.142 391.053 390.445 391.56ZM469.709 388.9L433.609 428.325L434.084 417.4L470.184 377.975L469.709 388.9ZM441.209 381.3V417.875L433.609 428.325V381.3H441.209ZM470.184 377.975V425H462.584V388.425L470.184 377.975ZM437.124 358.975H443.869C443.869 359.798 444.09 360.78 444.534 361.92C444.977 362.997 445.8 363.978 447.004 364.865C448.207 365.688 449.917 366.1 452.134 366.1C454.35 366.1 456.06 365.688 457.264 364.865C458.467 363.978 459.29 362.997 459.734 361.92C460.177 360.78 460.399 359.798 460.399 358.975H467.144C467.144 361.128 466.574 363.25 465.434 365.34C464.357 367.367 462.71 369.045 460.494 370.375C458.277 371.642 455.49 372.275 452.134 372.275C448.84 372.275 446.054 371.642 443.774 370.375C441.557 369.045 439.879 367.367 438.739 365.34C437.662 363.25 437.124 361.128 437.124 358.975ZM489.366 405.525V398.4H521.666V405.525H489.366ZM516.726 381.3H524.326V425H516.726V381.3ZM484.901 381.3H492.501V425H484.901V381.3ZM539.662 405.05V398.59H568.827C568.574 396.31 567.941 394.315 566.927 392.605C565.977 390.832 564.616 389.47 562.842 388.52C561.132 387.507 559.011 387 556.477 387C553.944 387 551.632 387.538 549.542 388.615C547.452 389.692 545.774 391.243 544.507 393.27C543.304 395.233 542.702 397.577 542.702 400.3L542.512 403.15C542.512 406.507 543.082 409.357 544.222 411.7C545.362 414.043 546.977 415.817 549.067 417.02C551.157 418.223 553.627 418.825 556.477 418.825C558.631 418.825 560.531 418.508 562.177 417.875C563.887 417.178 565.407 416.26 566.737 415.12C568.067 413.917 569.207 412.523 570.157 410.94L576.332 414.835C574.876 417.052 573.261 419.015 571.487 420.725C569.714 422.372 567.561 423.67 565.027 424.62C562.494 425.507 559.327 425.95 555.527 425.95C551.601 425.95 548.054 424.968 544.887 423.005C541.784 421.042 539.314 418.35 537.477 414.93C535.704 411.447 534.817 407.52 534.817 403.15C534.817 402.327 534.849 401.535 534.912 400.775C534.976 400.015 535.071 399.255 535.197 398.495C535.831 394.885 537.097 391.718 538.997 388.995C540.897 386.272 543.336 384.15 546.312 382.63C549.352 381.11 552.741 380.35 556.477 380.35C560.594 380.35 564.204 381.268 567.307 383.105C570.411 384.942 572.817 387.538 574.527 390.895C576.237 394.188 577.092 398.147 577.092 402.77C577.092 403.15 577.092 403.53 577.092 403.91C577.092 404.29 577.061 404.67 576.997 405.05H539.662ZM591.974 405.525V398.4H624.274V405.525H591.974ZM619.334 381.3H626.934V425H619.334V381.3ZM587.509 381.3H595.109V425H587.509V381.3ZM644.645 412.175C644.645 413.695 645.056 414.993 645.88 416.07C646.703 417.083 647.811 417.875 649.205 418.445C650.598 418.952 652.15 419.205 653.86 419.205C656.393 419.205 658.641 418.825 660.605 418.065C662.568 417.305 664.088 416.102 665.165 414.455C666.305 412.808 666.875 410.623 666.875 407.9L668.395 412.65C668.395 415.437 667.635 417.843 666.115 419.87C664.658 421.833 662.695 423.353 660.225 424.43C657.755 425.443 655 425.95 651.96 425.95C649.236 425.95 646.735 425.443 644.455 424.43C642.175 423.417 640.338 421.928 638.945 419.965C637.615 417.938 636.95 415.437 636.95 412.46C636.95 409.357 637.71 406.728 639.23 404.575C640.75 402.422 642.903 400.775 645.69 399.635C648.476 398.432 651.77 397.83 655.57 397.83C658.356 397.83 660.731 398.21 662.695 398.97C664.721 399.667 666.336 400.49 667.54 401.44C668.743 402.327 669.566 403.055 670.01 403.625V408.09C667.856 406.57 665.671 405.462 663.455 404.765C661.238 404.005 658.736 403.625 655.95 403.625C653.416 403.625 651.295 403.973 649.585 404.67C647.938 405.367 646.703 406.348 645.88 407.615C645.056 408.882 644.645 410.402 644.645 412.175ZM644.645 391.56L640.94 385.765C642.586 384.562 644.803 383.358 647.59 382.155C650.376 380.952 653.733 380.35 657.66 380.35C661.016 380.35 663.93 380.888 666.4 381.965C668.933 382.978 670.896 384.467 672.29 386.43C673.746 388.393 674.475 390.8 674.475 393.65V425H666.875V393.65C666.875 391.433 665.925 389.787 664.025 388.71C662.188 387.57 660.066 387 657.66 387C655.57 387 653.67 387.285 651.96 387.855C650.25 388.362 648.761 388.995 647.495 389.755C646.291 390.452 645.341 391.053 644.645 391.56ZM722.654 405.05L725.504 397.45H754.954L757.804 405.05H722.654ZM740.039 373.51L728.829 399.92L728.069 401.63L718.189 425H709.164L740.039 355.175L770.914 425H761.889L752.199 402.2L751.439 400.3L740.039 373.51ZM782.994 405.525V398.4H815.294V405.525H782.994ZM810.354 381.3H817.954V425H810.354V381.3ZM778.529 381.3H786.129V425H778.529V381.3ZM825.595 381.3H851.245V388.425H825.595V381.3ZM834.62 383.2H842.22V425H834.62V383.2ZM853.679 403.15C853.679 398.717 854.661 394.79 856.624 391.37C858.651 387.95 861.374 385.258 864.794 383.295C868.214 381.332 872.046 380.35 876.289 380.35C880.596 380.35 884.428 381.332 887.784 383.295C891.204 385.258 893.896 387.95 895.859 391.37C897.886 394.79 898.899 398.717 898.899 403.15C898.899 407.52 897.886 411.447 895.859 414.93C893.896 418.35 891.204 421.042 887.784 423.005C884.428 424.968 880.596 425.95 876.289 425.95C872.046 425.95 868.214 424.968 864.794 423.005C861.374 421.042 858.651 418.35 856.624 414.93C854.661 411.447 853.679 407.52 853.679 403.15ZM861.374 403.15C861.374 406.19 862.008 408.882 863.274 411.225C864.604 413.568 866.378 415.437 868.594 416.83C870.874 418.16 873.439 418.825 876.289 418.825C879.139 418.825 881.673 418.16 883.889 416.83C886.169 415.437 887.943 413.568 889.209 411.225C890.539 408.882 891.204 406.19 891.204 403.15C891.204 400.11 890.539 397.418 889.209 395.075C887.943 392.668 886.169 390.8 883.889 389.47C881.673 388.14 879.139 387.475 876.289 387.475C873.439 387.475 870.874 388.14 868.594 389.47C866.378 390.8 864.604 392.668 863.274 395.075C862.008 397.418 861.374 400.11 861.374 403.15ZM913.805 405.525V398.4H946.105V405.525H913.805ZM941.165 381.3H948.765V425H941.165V381.3ZM909.34 381.3H916.94V425H909.34V381.3ZM966.476 412.175C966.476 413.695 966.887 414.993 967.711 416.07C968.534 417.083 969.642 417.875 971.036 418.445C972.429 418.952 973.981 419.205 975.691 419.205C978.224 419.205 980.472 418.825 982.436 418.065C984.399 417.305 985.919 416.102 986.996 414.455C988.136 412.808 988.706 410.623 988.706 407.9L990.226 412.65C990.226 415.437 989.466 417.843 987.946 419.87C986.489 421.833 984.526 423.353 982.056 424.43C979.586 425.443 976.831 425.95 973.791 425.95C971.067 425.95 968.566 425.443 966.286 424.43C964.006 423.417 962.169 421.928 960.776 419.965C959.446 417.938 958.781 415.437 958.781 412.46C958.781 409.357 959.541 406.728 961.061 404.575C962.581 402.422 964.734 400.775 967.521 399.635C970.307 398.432 973.601 397.83 977.401 397.83C980.187 397.83 982.562 398.21 984.526 398.97C986.552 399.667 988.167 400.49 989.371 401.44C990.574 402.327 991.397 403.055 991.841 403.625V408.09C989.687 406.57 987.502 405.462 985.286 404.765C983.069 404.005 980.567 403.625 977.781 403.625C975.247 403.625 973.126 403.973 971.416 404.67C969.769 405.367 968.534 406.348 967.711 407.615C966.887 408.882 966.476 410.402 966.476 412.175ZM966.476 391.56L962.771 385.765C964.417 384.562 966.634 383.358 969.421 382.155C972.207 380.952 975.564 380.35 979.491 380.35C982.847 380.35 985.761 380.888 988.231 381.965C990.764 382.978 992.727 384.467 994.121 386.43C995.577 388.393 996.306 390.8 996.306 393.65V425H988.706V393.65C988.706 391.433 987.756 389.787 985.856 388.71C984.019 387.57 981.897 387 979.491 387C977.401 387 975.501 387.285 973.791 387.855C972.081 388.362 970.592 388.995 969.326 389.755C968.122 390.452 967.172 391.053 966.476 391.56Z" fill="white"/>
</g>
<defs>
<radialGradient id="paint0_radial_129_471" cx="0" cy="0" r="1" gradientUnits="userSpaceOnUse" gradientTransform="translate(364.198 357.02) rotate(44.1627) scale(1393.21 2129.98)">
<stop offset="1" stop-color="#3D2C7F"/>
</radialGradient>
<linearGradient id="paint1_linear_129_471" x1="1440.2" y1="420.84" x2="2.62069" y2="911.741" gradientUnits="userSpaceOnUse">
<stop stop-color="#3C4A95"/>
<stop offset="0.5" stop-color="#3C4A95"/>
<stop offset="1" stop-color="#3C4A95"/>
</linearGradient>
<linearGradient id="paint2_linear_129_471" x1="1436.21" y1="503" x2="-1.37383" y2="993.901" gradientUnits="userSpaceOnUse">
<stop stop-color="#3496E1" stop-opacity="0.52"/>
<stop offset="0.5" stop-color="#3496E1"/>
<stop offset="1" stop-color="#3496E1" stop-opacity="0.44"/>
</linearGradient>
<clipPath id="clip0_129_471">
<rect width="1439" height="962" fill="white"/>
</clipPath>
</defs>
</svg>
